<svg xmlns="http://www.w3.org/2000/svg" width="509.832" height="556.882" viewBox="0 0 509.832 556.882">
  <g id="logo" transform="translate(-58.393 592.882)">
    <path id="Path_1" data-name="Path 1" d="M306.1-586.3c-1.8,3.7-39.9,83.1-84.6,176.3-12.024,25.071-36.744,76.6-36.744,76.6S120.685-199.866,107.6-172.6c-17.9,37.4-32.4,68.1-32.3,68.3.7.6,340.9-7.7,342.1-8.4.6-.3,5.5-3.3,10.9-6.7l9.8-6-3.8-2c-4.3-2.2-85.7-41.5-100.3-48.3l-9.5-4.5,11.5-5.7c6.3-3.1,24-11.7,39.3-19L403-218.3v-18.8c0-18.2.1-18.8,2.1-19.1,1.5-.2-4.7-5.9-25.2-22.8-15-12.4-28.1-23.1-29.1-23.8-1.7-1.3-1.8-.3-1.8,22.7V-256h21v52.7l-11.7,5.6-11.8,5.6-.3-113.3L346-418.8l-18.5-4.6c-10.1-2.5-18.7-4.6-19-4.6s-.5.7-.5,1.5c0,2.3-4.3,4-6.8,2.6-2.8-1.5-3.2-1.4-3.2.9,0,2.9-3.5,4.4-7.2,3.1-4-1.4-3.8-1.4-3.8.9,0,2.8-4,4.6-6.8,3.1a10.348,10.348,0,0,0-2.6-1.1c-.3,0-.6,48.1-.6,107v107l-2.5-1.2-2.5-1.1-.2-87.4-.3-87.4-19.7,24.3L232-331.5v131.2l66.8,31.9c36.7,17.5,71.4,34.2,77.2,37.1l10.5,5.2H246.1c-133.2.1-140.3,0-139.6-1.7.3-.9,10.5-20.2,22.5-42.7,17-32,170.4-323.9,181.1-344.6l2.4-4.7,80,151.6c44,83.3,86.2,163.2,93.9,177.6C530.8-106.9,555.5-60,561.1-48.8c3.5,7.1,6.6,12.8,6.9,12.8s.3-10.9,0-24.2l-.5-24.3L514.2-192c-29.3-59.1-85.8-173.4-125.5-254l-37.789-76.572L316.4-592.5l-3.4-.3C309.6-593.1,309.4-592.9,306.1-586.3ZM325-423c6.9,1.7,14.2,3.6,16.3,4.1l3.7,1v226.5l-10.8,5.3-10.8,5.3-7.2-3.6L309-188V-307.6c0-113.4.1-119.5,1.8-119C311.7-426.3,318.1-424.7,325-423ZM308-306c0,117.8,0,118.1-2,117s-2-2.1-2-117c0-109.3.1-116,1.8-116.9a8.45,8.45,0,0,1,2-1.1C307.9-424,308-370.9,308-306Zm-10-.5c0,113.3,0,113.6-2,112.5s-2-2.1-2-112.5c0-105,.1-111.5,1.8-112.4a8.45,8.45,0,0,1,2-1.1C297.9-420,298-368.9,298-306.5ZM286.6-199.3c-.2.2-1.1.1-2-.3-1.5-.6-1.6-9.3-1.6-107.5,0-100.7.1-106.9,1.8-107.8,1.6-.9,1.7,4.5,2,107.1C286.9-248.3,286.8-199.5,286.6-199.3ZM262-308.5V-298H242v-21h20Zm0,31.5v10H242v-20h20Zm0,31.5v9.5H242v-19h20Z" fill="#f8f5f5"/>
    <path id="Path_2" data-name="Path 2" d="M349.2-310.2c.3,4.2.4,4.2,30.8,29.2,29.8,24.4,30.6,25,34.9,25,3.9,0,4.3-.2,3.1-1.4-1.3-1.2-64.2-53.1-67.8-55.9C349.1-314.1,348.9-313.5,349.2-310.2Z" fill="#fbf6f6"/>
    <path id="Path_3" data-name="Path 3" d="M382.5-93c-3.3.4-5.4.7-4.7.8.8.1,1.2,2.4,1.2,7.6,0,5-.4,7.6-1.2,7.9-.7.2,1.5.6,5,.8,3.4.2,6.2.2,6.2-.1s2.1-.4,4.8-.2c3,.2,4.2,0,3.4-.6a6.423,6.423,0,0,1-1.7-3.8l-.3-2.9,3.2,3.8c2.8,3.3,3.6,3.7,7.9,3.7,4.4,0,4.7-.1,3.7-1.9a20.986,20.986,0,0,1-1-6.7v-4.7l5.3,6.6c2.8,3.6,5.8,6.6,6.5,6.6.8.1,1.2-2,1.2-7.2,0-4.3.5-7.8,1.2-8.5.9-.9.4-1.2-2.5-1.2-3.7,0-3.7,0-2.2,2.4a10.17,10.17,0,0,1,1.3,5.8l-.3,3.3L415-87.3c-3.7-4.8-5-5.7-7.5-5.6-1.6,0-2.4.3-1.7.6,1.4.6,1.7,12,.3,14.2-.7,1.1-1.4.9-3.5-1.4-3.1-3.4-3.2-4-.6-7.2,1.5-1.9,1.7-3,.9-4.4-.8-1.6-2.1-1.9-7.2-1.8-3.4,0-5.6.3-4.9.6,1.5.6,1.7,15.3.2,15.3-.5,0-1-.9-1-2,0-2.6-1.2-2.6-2.8.1-2.1,3.2-4.5,2-4.7-2.4-.2-3.5,0-3.7,2.9-3.8,2.1-.1,2.5-.3,1.1-.6a10.6,10.6,0,0,1-3.2-1.5c-1.5-1.2-1.7-4.8-.4-4.8,2.1,0,4.1,1.3,4.1,2.6,0,.8.5,1.4,1,1.4.6,0,1-1.4,1-3a8.96,8.96,0,0,0-.2-2.8C388.6-93.7,385.8-93.4,382.5-93Z" fill="#f3e8e8"/>
    <path id="Path_4" data-name="Path 4" d="M458-92.9c-1.9.4-2.9.7-2.2.8.6,0,1.2.9,1.2,1.8,0,2.2-2.2,8.3-3.1,8.3-.7,0-3.9-7.9-3.9-9.8,0-.7-1.1-1.2-2.5-1.2-2.3,0-2.4.1-.9,2.7.8,1.6,2.4,5.4,3.5,8.5,1.1,3.2,2.4,5.8,2.9,5.8.4,0,2.3-3.4,4.1-7.7,1.9-4.2,3.5-6.9,3.7-6,.5,2.3,1.9,2.1,3.2-.3a3.609,3.609,0,0,1,2.5-2c1.2,0,1.5,1.5,1.5,6.8,0,4-.5,7.3-1.2,8-.9.9-.3,1.2,2.7,1.2s3.6-.3,2.7-1.2c-1.8-1.8-1.6-14.8.2-14.8a4.973,4.973,0,0,1,2.9,2.2l1.6,2.3v-3l.1-3h-7.8A97,97,0,0,0,458-92.9Z" fill="#dcd2d2"/>
    <path id="Path_5" data-name="Path 5" d="M502.3-91.3c.4,3.3,1.4,3.8,2.7,1.4a3.528,3.528,0,0,1,2.5-2.1c1.2,0,1.5,1.5,1.5,6.8,0,4-.5,7.3-1.2,8-.9.9-.3,1.2,2.7,1.2s3.6-.3,2.7-1.2c-.7-.7-1.2-4-1.2-8,0-5.6.3-6.8,1.6-6.8a2.53,2.53,0,0,1,2.1,2c.7,2.5,2,2.6,2.6.2.3-.9.5,1.5.6,5.5.1,4.9-.3,7.3-1.1,7.6-.7.3,1.8.6,5.5.6,6.3.1,7.1-.1,9.8-2.8,2.2-2.3,2.9-3.9,2.9-7,0-6.3-1.8-7-19.3-7.3C502-93.5,502-93.5,502.3-91.3Z" fill="#dbd0d0"/>
    <path id="Path_6" data-name="Path 6" d="M63.9-86.3a50.184,50.184,0,0,1-4.6,8.5c-1.5,1.7-1.4,1.8,2.3,1.8,2.5,0,3.4-.3,2.6-.9-2.3-1.4-1-4.6,2.1-4.9,2.4-.3,3,.2,4,2.7,1.1,3,1.4,3.1,6.7,3.1,3.4,0,5-.4,4.2-.9-2.3-1.4-1-4.6,2-4.9,2.8-.3,5.5,2.8,4.3,4.8-.4.6,2.2,1,6.7,1,5,0,6.8-.3,5.8-1a4.667,4.667,0,0,1-1.5-3.6l-.1-2.7,3.1,3.7c1.9,2.3,3.9,3.6,5.4,3.6,2.5,0,2.5,0-.7-3.3-3.8-3.9-3.8-4.1-1.2-7.4,1.5-1.9,1.7-3,.9-4.4-.8-1.6-2.1-1.9-7.2-1.8-3.4,0-5.6.3-4.9.6.8.3,1.2,2.9,1.2,8,0,10.1-2.1,9.8-6.3-1-1.6-4.2-3.4-7.7-3.8-7.7-.5,0-2.4,3.3-4.2,7.4-1.9,4-3.9,7.6-4.5,8s-2.4-2.6-4.3-7.4c-1.8-4.4-3.7-8-4.1-8C67.3-93,65.6-90,63.9-86.3Z" fill="#f2ecec"/>
    <path id="Path_7" data-name="Path 7" d="M112.4-91.2c-4.9,3.9-5.6,8.6-1.9,12.6C115.9-72.7,127-77,127-85c0-3-.6-4.3-2.6-5.9C121.1-93.5,115.3-93.6,112.4-91.2Z" fill="#f1e7e7"/>
    <path id="Path_8" data-name="Path 8" d="M129.8-92.3q1.2.45,1.2,7.8t-1.2,7.8c-.7.3.7.6,3.2.6s4-.3,3.4-.7c-.7-.4-1.5-2.4-1.8-4.5L134-85h4c4,0,4,0,4,3.9,0,2.2-.5,4.2-1.2,4.4-.7.3,2.1.6,6.2.6,4.5,0,7-.3,6.2-.8-2.3-1.4-1-4.6,2-4.9,2.8-.3,5.5,2.8,4.3,4.8-.4.6.9,1,3,1,3.2,0,3.5-.2,2.2-1.5-.8-.8-2.7-4.6-4.3-8.5-1.5-3.9-3.1-6.9-3.6-6.8-.5.2-2.6,3.7-4.6,7.8-4.8,9.7-6.6,9.9-6.7.7-.1-5.2.2-7,1.4-7.7,1.1-.7.3-.9-2.9-.9-2.5,0-3.9.3-3.2.6.6.2,1.2,1.8,1.2,3.4,0,2.7-.3,2.9-3.9,2.9-3.8,0-3.9-.1-3.5-2.7a6.689,6.689,0,0,1,1.7-3.5c.7-.4-.8-.7-3.3-.7S129.1-92.6,129.8-92.3Z" fill="#ebdcdc"/>
    <path id="Path_9" data-name="Path 9" d="M172.8-92.3q1.2.45,1.2,7.8t-1.2,7.8c-.7.3,1,.6,3.8.6,3.6.1,5.8-.4,7.2-1.7,3.1-2.5,3.1-5.4.2-6.9-1.4-.7-2-1.3-1.3-1.3s1.7-.9,2.3-2.1c1.9-3.4-.3-4.9-7.4-4.8C174.3-92.9,172.1-92.6,172.8-92.3Z" fill="#f5e4e4"/>
    <path id="Path_10" data-name="Path 10" d="M188.8-92.3c.8.3,1.2,2.7,1.2,6.8,0,7.5,1.4,9.5,6.8,9.5,5.6,0,6.6-1.2,7.7-8.7.8-5.2,1.4-6.9,2.8-7.1,1.5-.3,1.7.5,1.7,7.1,0,5.1-.4,7.7-1.2,8-.7.3.7.5,3.2.5s3.9-.2,3.3-.5c-.9-.3-1.3-2.9-1.3-7.8s.4-7.5,1.3-7.8c.6-.3-2.3-.6-6.6-.6L200-93l1.4,2.2c1.9,2.9,1.6,11.6-.4,12.8a5.48,5.48,0,0,1-5.9.1c-1.8-1.2-2.6-10.2-1.2-13,1.1-2,1-2.1-2.6-2C189.2-92.9,188.1-92.6,188.8-92.3Z" fill="#e6d9d9"/>
    <path id="Path_11" data-name="Path 11" d="M216.8-92.3c.8.3,1.2,2.9,1.2,7.9,0,5.2-.4,7.5-1.2,7.6-4,.5,12,1.2,18.5.8,7.1-.4,8.1-.8,10.3-3.3A9.835,9.835,0,0,0,248-86c0-5.6-2.5-7-12-6.9-4.1,0-6.9.3-6.2.6,1.5.6,1.7,15.3.2,15.3-.5,0-1-.9-1-2s-.3-2-.8-2c-.4,0-1.3.9-2,2a4.106,4.106,0,0,1-2.7,2c-1.2,0-1.5-1.5-1.5-7.4,0-5,.4-7.6,1.3-7.9.6-.3-.8-.5-3.3-.5S216.1-92.6,216.8-92.3Z" fill="#e2d8d8"/>
    <path id="Path_12" data-name="Path 12" d="M249.8-92.3q1.2.45,1.2,7.8t-1.2,7.8c-.7.3,2,.6,6,.6,5.6.1,7.1-.2,6.5-1.2-.9-1.5-2.1-11.7-1.4-11.6.4,0,3,2.9,5.9,6.5,2.9,3.5,5.7,6.4,6.3,6.4.5,0,.9-3,.9-6.6s.5-7.4,1-8.5c1-1.7.7-1.9-2.5-1.9-3.5,0-3.5,0-2,2.4a10.025,10.025,0,0,1,1.3,5.7l-.3,3.3L267-87.3l-4.5-5.6h-7C251.7-92.9,249.1-92.6,249.8-92.3Z" fill="#d6c5c5"/>
    <path id="Path_13" data-name="Path 13" d="M323.7-90.6c-3.4,3.1-4.3,7-2.6,10.3,4.1,7.7,17.9,4.2,18.1-4.6C339.4-92.2,329.3-95.8,323.7-90.6Z" fill="#e6dcdc"/>
  </g>
</svg>
